<?xml version="1.0" standalone="no"?>
<!DOCTYPE svg PUBLIC "-//W3C//DTD SVG 20010904//EN"
 "http://www.w3.org/TR/2001/REC-SVG-20010904/DTD/svg10.dtd">
<svg version="1.0" xmlns="http://www.w3.org/2000/svg"
 width="16.000000pt" height="16.000000pt" viewBox="0 0 16.000000 16.000000"
 preserveAspectRatio="xMidYMid meet">
<metadata>
Created by potrace 1.11, written by Peter Selinger 2001-2013
</metadata>
<g transform="translate(0.000000,16.000000) scale(0.003125,-0.003125)"
fill="#000000" stroke="none">
<path d="M2440 4954 c-932 -52 -1735 -618 -2095 -1479 -122 -290 -177 -578
-177 -915 0 -337 55 -625 177 -915 334 -798 1041 -1341 1900 -1461 235 -32
588 -18 820 32 778 171 1416 708 1718 1449 118 288 169 561 170 910 1 276 -28
467 -109 718 -239 738 -813 1312 -1551 1551 -266 85 -575 125 -853 110z m-40
-963 l0 -639 -72 -22 c-131 -39 -223 -95 -329 -200 -116 -115 -183 -228 -219
-367 l-11 -43 -640 0 -641 0 7 53 c36 289 110 528 236 766 269 505 755 887
1311 1030 104 27 272 57 336 60 l22 1 0 -639z m592 604 c425 -88 828 -322
1120 -649 l88 -100 0 -563 0 -563 -360 0 -360 0 0 746 0 745 -73 33 c-183 84
-432 160 -604 187 l-83 12 0 95 0 95 78 -7 c42 -3 130 -17 194 -31z m-291
-1575 c202 -62 339 -248 339 -460 0 -214 -137 -399 -343 -462 -89 -27 -224
-22 -309 11 -120 46 -233 159 -279 279 -33 85 -38 220 -11 309 48 155 166 274
320 324 78 25 202 25 283 -1z m-898 -708 c38 -121 95 -212 196 -313 139 -138
284 -209 470 -228 95 -10 224 -2 302 19 264 71 494 302 560 563 l11 47 649 0
648 0 -4 -27 c-2 -16 -9 -66 -15 -113 -55 -424 -269 -849 -590 -1170 -398
-398 -909 -610 -1470 -610 -735 0 -1399 376 -1786 1010 -155 254 -236 499
-288 868 l-6 42 647 0 648 0 28 -88z"/>
</g>
</svg>
